<svg width="20" height="20" viewBox="0 0 20 20" fill="none" xmlns="http://www.w3.org/2000/svg">
<path d="M12.75 8.875C12.75 8.59886 12.5261 8.375 12.25 8.375C11.9739 8.375 11.75 8.59886 11.75 8.875H12.75ZM11.75 4.9375C11.75 5.21364 11.9739 5.4375 12.25 5.4375C12.5261 5.4375 12.75 5.21364 12.75 4.9375H11.75ZM9.33944 12.3222C9.06866 12.3764 8.89305 12.6398 8.94721 12.9106C9.00137 13.1813 9.26478 13.3569 9.53556 13.3028L9.33944 12.3222ZM6.16056 13.9778C6.43134 13.9236 6.60695 13.6602 6.55279 13.3894C6.49863 13.1187 6.23522 12.9431 5.96444 12.9972L6.16056 13.9778ZM12.8164 13.2285C13.0462 13.3817 13.3566 13.3196 13.5098 13.0899C13.663 12.8601 13.6009 12.5497 13.3711 12.3965L12.8164 13.2285ZM15.0586 13.5215C14.8288 13.3683 14.5184 13.4304 14.3652 13.6601C14.212 13.8899 14.2741 14.2003 14.5039 14.3535L15.0586 13.5215ZM16.1914 15.4785C16.4212 15.6317 16.7316 15.5696 16.8848 15.3399C17.038 15.1101 16.9759 14.7997 16.7461 14.6465L16.1914 15.4785ZM18.4336 15.7715C18.2038 15.6183 17.8934 15.6804 17.7402 15.9102C17.587 16.1399 17.6491 16.4503 17.8789 16.6035L18.4336 15.7715ZM2.36368 14.7372C2.63446 14.683 2.81007 14.4196 2.75592 14.1488C2.70176 13.878 2.43835 13.7024 2.16757 13.7566L2.36368 14.7372ZM4.69882 13.2503C4.42804 13.3045 4.25243 13.5679 4.30658 13.8387C4.36074 14.1095 4.62415 14.2851 4.89493 14.2309L4.69882 13.2503ZM11.75 1.98438C11.75 2.26052 11.9739 2.48438 12.25 2.48438C12.5261 2.48438 12.75 2.26052 12.75 1.98438H11.75ZM12.75 3.95312C12.75 3.67698 12.5261 3.45312 12.25 3.45312C11.9739 3.45312 11.75 3.67698 11.75 3.95312H12.75ZM11.75 9.71875C11.75 9.99489 11.9739 10.2188 12.25 10.2188C12.5261 10.2188 12.75 9.99489 12.75 9.71875H11.75ZM12.75 11.4062C12.75 11.1301 12.5261 10.9062 12.25 10.9062C11.9739 10.9062 11.75 11.1301 11.75 11.4062H12.75ZM10.2387 13.1622C10.5095 13.108 10.6851 12.8446 10.6309 12.5738C10.5768 12.303 10.3133 12.1274 10.0426 12.1816L10.2387 13.1622ZM11.4488 11.9003C11.178 11.9545 11.0024 12.2179 11.0566 12.4887C11.1107 12.7595 11.3742 12.9351 11.6449 12.8809L11.4488 11.9003ZM11.9726 12.666L12.8164 13.2285L13.3711 12.3965L12.5274 11.834L11.9726 12.666ZM14.5039 14.3535L16.1914 15.4785L16.7461 14.6465L15.0586 13.5215L14.5039 14.3535ZM17.8789 16.6035L18.7226 17.166L19.2774 16.334L18.4336 15.7715L17.8789 16.6035ZM1.09806 14.9903L2.36368 14.7372L2.16757 13.7566L0.901942 14.0097L1.09806 14.9903ZM4.89493 14.2309L6.16056 13.9778L5.96444 12.9972L4.69882 13.2503L4.89493 14.2309ZM11.75 1V1.98438H12.75V1H11.75ZM11.75 3.95312V4.9375H12.75V3.95312H11.75ZM11.75 8.875V9.71875H12.75V8.875H11.75ZM11.75 11.4062V12.25H12.75V11.4062H11.75ZM9.53556 13.3028L10.2387 13.1622L10.0426 12.1816L9.33944 12.3222L9.53556 13.3028ZM11.6449 12.8809L12.3481 12.7403L12.1519 11.7597L11.4488 11.9003L11.6449 12.8809Z" fill="#8B8B8B"/>
<path d="M1 3.25V14.5L7.75 19M1 3.25L7.75 7.75M1 3.25L12.25 1L19 5.5M19 5.5V16.75L7.75 19M19 5.5L7.75 7.75M7.75 7.75V19" stroke="#8B8B8B" stroke-linejoin="round"/>
</svg>
