<svg width="20" height="22" viewBox="0 0 20 22" fill="none" xmlns="http://www.w3.org/2000/svg">
<g clip-path="url(#clip0_102_25508)">
<path d="M8.6263 3.29053C8.6263 2.18596 7.73087 1.29053 6.6263 1.29053H3.29297C2.1884 1.29053 1.29297 2.18596 1.29297 3.29053V7.29053C1.29297 8.3951 2.1884 9.29053 3.29297 9.29053H6.6263C7.73087 9.29053 8.6263 8.3951 8.6263 7.29053V3.29053Z" stroke="#878787" stroke-linecap="round"/>
<path d="M8.6263 15.2905C8.6263 14.186 7.73087 13.2905 6.6263 13.2905H3.29297C2.1884 13.2905 1.29297 14.186 1.29297 15.2905V19.2905C1.29297 20.3951 2.1884 21.2905 3.29297 21.2905H6.6263C7.73087 21.2905 8.6263 20.3951 8.6263 19.2905V15.2905Z" stroke="#878787" stroke-linecap="round"/>
<path d="M19.293 3.29053C19.293 2.18596 18.3975 1.29053 17.293 1.29053H13.293C12.1884 1.29053 11.293 2.18596 11.293 3.29053V7.29053C11.293 8.3951 12.1884 9.29053 13.293 9.29053H17.293C18.3975 9.29053 19.293 8.3951 19.293 7.29053V3.29053Z" stroke="#878787" stroke-linecap="round"/>
<path d="M19.293 15.2905C19.293 14.186 18.3975 13.2905 17.293 13.2905H13.293C12.1884 13.2905 11.293 14.186 11.293 15.2905V19.2905C11.293 20.3951 12.1884 21.2905 13.293 21.2905H17.293C18.3975 21.2905 19.293 20.3951 19.293 19.2905V15.2905Z" stroke="#878787" stroke-linecap="round"/>
</g>
<defs>
<clipPath id="clip0_102_25508">
<rect width="20" height="22" fill="white"/>
</clipPath>
</defs>
</svg>
