<svg width="240" height="26" viewBox="0 0 240 26" fill="none" xmlns="http://www.w3.org/2000/svg">
<g clip-path="url(#clip0_20_701)">
<path d="M34.7949 8.72363C34.5301 8.81449 34.2753 8.92213 34.0318 9.05213C33.2332 9.47847 32.6031 10.0935 32.1416 10.8931C31.68 11.6941 31.4492 12.6446 31.4492 13.7447V25.5677H37.7286V13.4484C37.7286 11.8884 37.2897 10.6583 36.4118 9.75944C35.9573 9.29256 35.4179 8.94729 34.7949 8.72363Z" fill="white"/>
<path d="M28.2422 10.893C27.7806 11.694 27.5498 12.6445 27.5498 13.7446V25.5676H29.229V9.67969C28.8425 10.0208 28.5126 10.4247 28.2422 10.893Z" fill="white"/>
<path d="M31.4492 0.345703V6.62205C32.0453 6.47667 32.7037 6.40538 33.4258 6.40538C34.1082 6.40538 34.7453 6.47947 35.34 6.62484C35.9389 6.47807 36.6015 6.40538 37.3265 6.40538C38.6234 6.40538 39.7632 6.66818 40.7444 7.19377C41.7255 7.71936 42.4915 8.49517 43.0395 9.52119C43.5888 10.5472 43.8635 11.8123 43.8635 13.3149V25.5699H45.8684L45.8415 0.345703H31.4492Z" fill="white"/>
<path d="M23.0826 25.5685H25.3296V0.345703H23.0571L23.0826 25.5685Z" fill="white"/>
<path d="M27.5498 9.61904H27.7494C28.0949 8.86699 28.589 8.23237 29.229 7.71377V0.345703H27.5498V9.61904Z" fill="white"/>
<path d="M38.6035 8.69141C38.8003 8.94721 38.9801 9.22259 39.1387 9.52033C39.6881 10.5464 39.9613 11.8114 39.9613 13.3141V25.569H41.6278V13.4497C41.6278 11.8897 41.1889 10.6596 40.311 9.76076C39.8339 9.27012 39.2647 8.91366 38.6035 8.69141Z" fill="white"/>
<path d="M6.63048 3.41215C7.95715 2.58323 9.42681 2.16806 11.0409 2.16806C12.0476 2.16806 12.982 2.32043 13.8471 2.62376C14.7122 2.9271 15.4853 3.35484 16.1677 3.90419C16.8502 4.45495 17.4165 5.09656 17.871 5.83183C18.3241 6.5671 18.6384 7.36527 18.8126 8.22774H21.1572C20.9491 7.06194 20.5597 5.9814 19.9906 4.98892C19.4214 3.99505 18.6979 3.1228 17.82 2.37215C16.9422 1.62151 15.9341 1.0386 14.7943 0.623441C13.656 0.206882 12.4044 0 11.0409 0C8.89445 0 6.99011 0.531183 5.32647 1.59495C3.66284 2.65871 2.36024 4.1586 1.41586 6.09602C0.471482 8.03484 0 10.3217 0 12.9567C0 15.593 0.471482 17.8785 1.41586 19.8173C2.36024 21.7547 3.66284 23.256 5.32647 24.3184C6.99011 25.3822 8.89445 25.9133 11.0395 25.9133C12.403 25.9133 13.6546 25.7037 14.7943 25.2857C15.9341 24.8663 16.9422 24.2834 17.82 23.537C18.6979 22.7905 19.4214 21.9169 19.9906 20.9202C20.5597 19.9222 20.9491 18.8444 21.1572 17.687H18.8126C18.6384 18.5495 18.3241 19.349 17.871 20.0885C17.4179 20.828 16.8502 21.4696 16.1677 22.0161C15.4853 22.5627 14.7122 22.9876 13.8471 23.291C12.982 23.5943 12.0462 23.7467 11.0409 23.7467C9.42681 23.7467 7.95715 23.3343 6.63048 22.5096C5.30382 21.6848 4.24334 20.4715 3.44904 18.8696C2.65474 17.269 2.2583 15.2981 2.2583 12.9581C2.2583 10.6348 2.65474 8.66946 3.44904 7.06473C4.24334 5.4586 5.30382 4.24108 6.63048 3.41215Z" fill="white"/>
<path d="M59.9534 7.65484C59.2709 7.19075 58.5332 6.86505 57.7389 6.67634C56.9446 6.48763 56.1815 6.39258 55.4495 6.39258C54.4768 6.39258 53.5154 6.52957 52.5682 6.80494C51.6196 7.08032 50.763 7.52763 49.9984 8.14688C49.2339 8.76752 48.635 9.59365 48.2017 10.6281L50.3099 11.3787C50.6596 10.5652 51.2685 9.85924 52.1378 9.26097C53.0071 8.66129 54.1313 8.36215 55.5118 8.36215C56.9673 8.36215 58.083 8.73398 58.8617 9.47623C59.639 10.2199 60.0284 11.2361 60.0284 12.5249V12.9681C60.0284 13.4447 59.833 13.7886 59.4422 14.0025C59.0515 14.2163 58.4837 14.3715 57.7389 14.4707C56.9942 14.5686 56.0866 14.6846 55.0134 14.816C53.9317 14.9474 52.942 15.1319 52.0443 15.3696C51.1467 15.6072 50.368 15.9315 49.711 16.3425C49.054 16.7534 48.5472 17.279 48.189 17.9192C47.8307 18.5595 47.6523 19.3478 47.6523 20.2844C47.6523 21.4991 47.9355 22.5322 48.5004 23.382C49.0654 24.2319 49.8271 24.8805 50.7828 25.3278C51.7385 25.7752 52.7948 25.9988 53.9515 25.9988C55.0162 25.9988 55.9436 25.8311 56.7337 25.4942C57.5237 25.1573 58.1807 24.7268 58.7046 24.2012C59.2284 23.6756 59.6235 23.1332 59.8896 22.5755H60.027V25.5683H62.2471V12.722C62.2471 11.4584 62.0347 10.4128 61.6113 9.58806C61.1894 8.76333 60.6358 8.11892 59.9534 7.65484ZM60.0284 18.3148C60.0284 19.3492 59.7934 20.2956 59.3233 21.1539C58.8532 22.0121 58.1864 22.6999 57.3213 23.2171C56.4562 23.7343 55.4339 23.9929 54.2531 23.9929C52.9972 23.9929 51.9537 23.6784 51.1212 23.0508C50.2901 22.4231 49.8738 21.5341 49.8738 20.3837C49.8738 19.6204 50.0777 18.9942 50.4855 18.5049C50.8933 18.0171 51.4794 17.6327 52.244 17.3531C53.0086 17.0735 53.9317 16.8681 55.0134 16.7367C55.4127 16.6877 55.8615 16.6304 56.3613 16.5647C56.8597 16.499 57.3609 16.4194 57.865 16.3243C58.3676 16.2306 58.8136 16.1216 59.2001 15.9986C59.5866 15.8756 59.8627 15.7358 60.0298 15.5792V18.3148H60.0284Z" fill="white"/>
<path d="M68.9355 6.65137H66.7026V25.5699H68.9355V6.65137Z" fill="white"/>
<path d="M67.8381 0.246094C67.3893 0.246094 66.9999 0.399857 66.6714 0.707384C66.343 1.01491 66.1787 1.38674 66.1787 1.82147C66.1787 2.2562 66.343 2.62803 66.6714 2.93556C66.9999 3.24308 67.3935 3.39685 67.8508 3.39685C68.2997 3.39685 68.689 3.24308 69.0175 2.93556C69.346 2.62803 69.5102 2.2562 69.5102 1.82147C69.5102 1.38674 69.346 1.01491 69.0175 0.707384C68.6876 0.399857 68.2954 0.246094 67.8381 0.246094Z" fill="white"/>
<path d="M81.031 6.36719C79.8247 6.36719 78.7458 6.66074 77.7943 7.24783C76.8414 7.83493 76.1746 8.60514 75.7923 9.55708H75.6295V6.65095H73.4717V25.5694H75.6918V13.3522C75.6918 12.4157 75.9169 11.5826 76.3657 10.8515C76.8145 10.1204 77.4276 9.54869 78.2063 9.13353C78.9836 8.71837 79.8714 8.51149 80.8696 8.51149C81.1612 8.51149 81.4302 8.52826 81.6809 8.56041C81.93 8.59396 82.1056 8.61773 82.2047 8.6345V6.40493C82.0546 6.39654 81.8677 6.38816 81.644 6.37977C81.4175 6.37138 81.2136 6.36719 81.031 6.36719Z" fill="white"/>
<path d="M100.416 3.41215C101.742 2.58323 103.212 2.16806 104.826 2.16806C105.833 2.16806 106.767 2.32043 107.632 2.62376C108.497 2.9271 109.27 3.35484 109.953 3.90419C110.635 4.45495 111.203 5.09656 111.656 5.83183C112.109 6.5671 112.424 7.36527 112.598 8.22774H114.942C114.734 7.06194 114.345 5.9814 113.776 4.98892C113.207 3.99505 112.483 3.1228 111.605 2.37215C110.727 1.62151 109.719 1.0386 108.58 0.623441C107.441 0.206882 106.19 0 104.825 0C102.68 0 100.774 0.531183 99.1116 1.59495C97.448 2.65871 96.144 4.1586 95.201 6.09602C94.2566 8.03344 93.7852 10.3203 93.7852 12.9567C93.7852 15.593 94.2566 17.8785 95.201 19.8173C96.1454 21.7547 97.448 23.256 99.1116 24.3184C100.775 25.3822 102.68 25.9133 104.825 25.9133C106.188 25.9133 107.44 25.7037 108.58 25.2857C109.719 24.8663 110.727 24.2834 111.605 23.537C112.483 22.7905 113.207 21.9169 113.776 20.9202C114.345 19.9222 114.734 18.8444 114.942 17.687H112.598C112.424 18.5495 112.109 19.349 111.656 20.0885C111.203 20.828 110.635 21.4696 109.953 22.0161C109.27 22.5627 108.497 22.9876 107.632 23.291C106.767 23.5943 105.831 23.7467 104.826 23.7467C103.212 23.7467 101.742 23.3343 100.416 22.5096C99.089 21.6848 98.0285 20.4715 97.2342 18.8696C96.4399 17.269 96.0435 15.2981 96.0435 12.9581C96.0435 10.6348 96.4399 8.66946 97.2342 7.06473C98.0285 5.4586 99.089 4.24108 100.416 3.41215Z" fill="white"/>
<path d="M130.441 7.63666C129.176 6.80774 127.716 6.39258 126.061 6.39258C124.406 6.39258 122.945 6.80494 121.676 7.62968C120.408 8.45441 119.417 9.60484 118.702 11.0782C117.987 12.5515 117.628 14.2583 117.628 16.1957C117.628 18.1163 117.987 19.8105 118.702 21.2755C119.417 22.7404 120.409 23.8881 121.676 24.7184C122.945 25.5473 124.406 25.9625 126.061 25.9625C127.716 25.9625 129.178 25.5473 130.446 24.7184C131.715 23.8895 132.706 22.7418 133.421 21.2755C134.136 19.8091 134.494 18.1163 134.494 16.1957C134.494 14.2583 134.135 12.5543 133.415 11.0838C132.696 9.61462 131.705 8.46559 130.441 7.63666ZM131.545 20.0761C131.066 21.2503 130.366 22.1911 129.442 22.897C128.519 23.6029 127.392 23.9566 126.061 23.9566C124.73 23.9566 123.603 23.6043 122.68 22.897C121.757 22.1911 121.056 21.2503 120.578 20.0761C120.099 18.9019 119.86 17.6089 119.86 16.1971C119.86 14.7853 120.099 13.4881 120.578 12.3055C121.056 11.1229 121.758 10.1752 122.686 9.46086C123.613 8.74656 124.737 8.38871 126.06 8.38871C127.391 8.38871 128.518 8.74656 129.441 9.46086C130.364 10.1752 131.065 11.1229 131.544 12.3055C132.022 13.4881 132.261 14.7853 132.261 16.1971C132.261 17.6089 132.022 18.9019 131.545 20.0761Z" fill="white"/>
<path d="M140.261 0.345703H138.041V25.5699H140.261V0.345703Z" fill="white"/>
<path d="M146.964 0.345703H144.744V25.5699H146.964V0.345703Z" fill="white"/>
<path d="M164.499 8.66353C163.73 7.89611 162.862 7.32579 161.898 6.95116C160.934 6.57794 159.931 6.39062 158.892 6.39062C157.237 6.39062 155.78 6.81138 154.52 7.65288C153.26 8.49439 152.274 9.656 151.564 11.1391C150.853 12.6208 150.498 14.315 150.498 16.2189C150.498 18.1326 150.853 19.8212 151.564 21.2875C152.274 22.7538 153.283 23.8987 154.589 24.7234C155.895 25.5481 157.442 25.9605 159.231 25.9605C160.512 25.9605 161.645 25.7578 162.63 25.3511C163.616 24.9443 164.44 24.4047 165.101 23.7309C165.762 23.0572 166.238 22.3233 166.529 21.5265L164.421 20.8486C164.18 21.4147 163.825 21.9347 163.355 22.4072C162.885 22.8797 162.307 23.2557 161.621 23.5338C160.934 23.8134 160.138 23.9532 159.232 23.9532C157.901 23.9532 156.75 23.6457 155.776 23.0292C154.803 22.4128 154.053 21.5447 153.525 20.425C153.029 19.3725 152.769 18.1493 152.739 16.7613H167.004V15.6779C167.004 14.0928 166.779 12.7201 166.33 11.5585C165.877 10.3969 165.268 9.43234 164.499 8.66353ZM152.747 14.828C152.815 13.7741 153.072 12.7928 153.52 11.8842C154.04 10.833 154.762 9.98729 155.685 9.34708C156.608 8.70686 157.677 8.38675 158.891 8.38675C160.039 8.38675 161.051 8.67052 161.929 9.23665C162.807 9.80278 163.492 10.573 163.988 11.5459C164.482 12.5188 164.73 13.6133 164.73 14.828H152.747Z" fill="white"/>
<path d="M182.049 22.1324C181.57 22.7153 180.98 23.1654 180.277 23.4813C179.575 23.7972 178.799 23.9552 177.951 23.9552C176.695 23.9552 175.599 23.6225 174.663 22.9571C173.728 22.2917 173.003 21.3705 172.486 20.1921C171.971 19.0138 171.713 17.6565 171.713 16.1216C171.713 14.5938 171.976 13.2504 172.506 12.0874C173.034 10.9258 173.767 10.0186 174.707 9.3658C175.648 8.71301 176.728 8.38731 177.951 8.38731C179.315 8.38731 180.44 8.76752 181.325 9.52656C182.211 10.2856 182.771 11.1998 183.003 12.2663H185.248C185.074 11.0921 184.648 10.0633 183.97 9.18129C183.292 8.29924 182.434 7.6129 181.395 7.12505C180.355 6.6372 179.194 6.39258 177.914 6.39258C176.242 6.39258 174.775 6.81333 173.511 7.65484C172.247 8.49634 171.26 9.65656 170.548 11.1341C169.837 12.6116 169.481 14.2988 169.481 16.1957C169.481 18.0758 169.831 19.7504 170.529 21.221C171.227 22.6915 172.211 23.8489 173.48 24.6946C174.748 25.5403 176.239 25.9639 177.953 25.9639C179.283 25.9639 180.466 25.7095 181.502 25.2006C182.537 24.6918 183.381 23.9915 184.035 23.1011C184.688 22.2106 185.097 21.1944 185.264 20.0524H183.019C182.849 20.8561 182.526 21.5495 182.049 22.1324Z" fill="white"/>
<path d="M195.681 23.653C195.473 23.6894 195.223 23.7089 194.932 23.7089C194.433 23.7089 193.963 23.6167 193.522 23.4322C193.081 23.2476 192.723 22.9317 192.448 22.4844C192.174 22.0371 192.036 21.4192 192.036 20.6309V8.56043H196.091V6.65097H192.036V2.11914H189.804V6.65097H186.946V8.56043H189.804V21.1481C189.804 22.1825 190.044 23.0491 190.527 23.7467C191.01 24.4442 191.627 24.9698 192.379 25.3234C193.132 25.6757 193.915 25.8532 194.731 25.8532C195.197 25.8532 195.587 25.8183 195.903 25.7484C196.219 25.6785 196.485 25.603 196.702 25.5205L196.227 23.537C196.072 23.5775 195.889 23.6167 195.681 23.653Z" fill="white"/>
<path d="M200.607 0.246094C200.158 0.246094 199.768 0.399857 199.44 0.707384C199.112 1.01491 198.947 1.38674 198.947 1.82147C198.947 2.2562 199.112 2.62803 199.44 2.93556C199.768 3.24308 200.162 3.39685 200.619 3.39685C201.068 3.39685 201.458 3.24308 201.786 2.93556C202.115 2.62803 202.279 2.2562 202.279 1.82147C202.279 1.38674 202.115 1.01491 201.786 0.707384C201.456 0.399857 201.064 0.246094 200.607 0.246094Z" fill="white"/>
<path d="M201.704 6.65137H199.471V25.5699H201.704V6.65137Z" fill="white"/>
<path d="M217.943 7.63666C216.679 6.80774 215.219 6.39258 213.564 6.39258C211.909 6.39258 210.448 6.80494 209.179 7.62968C207.911 8.45441 206.92 9.60484 206.205 11.0782C205.49 12.5515 205.131 14.2583 205.131 16.1957C205.131 18.1163 205.488 19.8105 206.205 21.2755C206.92 22.7404 207.912 23.8881 209.179 24.7184C210.448 25.5473 211.909 25.9625 213.564 25.9625C215.219 25.9625 216.681 25.5473 217.949 24.7184C219.218 23.8895 220.209 22.7418 220.924 21.2755C221.639 19.8091 221.997 18.1163 221.997 16.1957C221.997 14.2583 221.637 12.5543 220.918 11.0838C220.199 9.61462 219.206 8.46559 217.943 7.63666ZM219.046 20.0761C218.568 21.2503 217.867 22.1911 216.944 22.897C216.021 23.6029 214.894 23.9566 213.563 23.9566C212.232 23.9566 211.105 23.6043 210.182 22.897C209.259 22.1911 208.558 21.2503 208.079 20.0761C207.601 18.9019 207.361 17.6089 207.361 16.1971C207.361 14.7853 207.601 13.4881 208.079 12.3055C208.558 11.1229 209.26 10.1752 210.187 9.46086C211.115 8.74656 212.239 8.38871 213.561 8.38871C214.892 8.38871 216.019 8.74656 216.942 9.46086C217.866 10.1752 218.566 11.1229 219.045 12.3055C219.524 13.4881 219.763 14.7853 219.763 16.1971C219.764 17.6089 219.525 18.9019 219.046 20.0761Z" fill="white"/>
<path d="M239.183 9.53366C238.638 8.50764 237.878 7.72904 236.901 7.19925C235.924 6.66947 234.79 6.40527 233.501 6.40527C232.095 6.40527 230.917 6.69882 229.964 7.28592C229.011 7.87302 228.312 8.65162 227.862 9.62033H227.662V6.6513H225.504V25.5698H227.724V13.7454C227.724 12.6453 227.951 11.6947 228.404 10.8938C228.857 10.0928 229.474 9.47914 230.256 9.0528C231.038 8.62646 231.932 8.41259 232.938 8.41259C234.41 8.41259 235.584 8.86409 236.462 9.7671C237.34 10.6701 237.779 11.8974 237.779 13.449V25.5684H239.999V13.3148C240 11.8205 239.728 10.5597 239.183 9.53366Z" fill="white"/>
</g>
<defs>
<clipPath id="clip0_20_701">
<rect width="240" height="26" fill="white"/>
</clipPath>
</defs>
</svg>
