<svg width="240" height="26" viewBox="0 0 240 26" fill="none" xmlns="http://www.w3.org/2000/svg">
<g clip-path="url(#clip0_20_812)">
<path d="M34.7949 8.58301C34.5301 8.6724 34.2753 8.7783 34.0318 8.9062C33.2332 9.32565 32.6031 9.93077 32.1416 10.7174C31.68 11.5054 31.4492 12.4406 31.4492 13.523V25.155H37.7286V13.2314C37.7286 11.6966 37.2897 10.4864 36.4118 9.60208C35.9573 9.14274 35.4179 8.80305 34.7949 8.58301Z" fill="#1E1E1F"/>
<path d="M28.2422 10.7174C27.7806 11.5054 27.5498 12.4406 27.5498 13.523V25.1549H29.229V9.52368C28.8425 9.85925 28.5126 10.2567 28.2422 10.7174Z" fill="#1E1E1F"/>
<path d="M31.4492 0.3396V6.51454C32.0453 6.37151 32.7037 6.30138 33.4258 6.30138C34.1082 6.30138 34.7453 6.37426 35.34 6.51729C35.9389 6.37289 36.6015 6.30138 37.3265 6.30138C38.6234 6.30138 39.7632 6.55993 40.7444 7.07703C41.7255 7.59413 42.4915 8.3574 43.0395 9.36684C43.5888 10.3763 43.8635 11.6209 43.8635 13.0993V25.1563H45.8684L45.8415 0.3396H31.4492Z" fill="#1E1E1F"/>
<path d="M23.0831 25.1549H25.3301V0.3396H23.0576L23.0831 25.1549Z" fill="#1E1E1F"/>
<path d="M27.5498 9.46311H27.7494C28.0949 8.72322 28.589 8.09885 29.229 7.58862V0.3396H27.5498V9.46311Z" fill="#1E1E1F"/>
<path d="M38.6035 8.55151C38.8003 8.80319 38.9801 9.07411 39.1387 9.36705C39.6881 10.3765 39.9613 11.6211 39.9613 13.0995V25.1565H41.6278V13.2329C41.6278 11.6981 41.1889 10.4879 40.311 9.60359C39.8339 9.12087 39.2647 8.77018 38.6035 8.55151Z" fill="#1E1E1F"/>
<path d="M6.63048 3.35702C7.95715 2.54149 9.42681 2.13304 11.0409 2.13304C12.0476 2.13304 12.982 2.28294 13.8471 2.58137C14.7122 2.87981 15.4853 3.30064 16.1677 3.84112C16.8502 4.38297 17.4165 5.01422 17.871 5.73761C18.3241 6.461 18.6384 7.24627 18.8126 8.09481H21.1572C20.9491 6.94784 20.5597 5.88476 19.9906 4.90832C19.4214 3.93051 18.6979 3.07234 17.82 2.33383C16.9422 1.59531 15.9341 1.02182 14.7943 0.613368C13.656 0.203539 12.4044 0 11.0409 0C8.89445 0 6.99011 0.522601 5.32647 1.56918C3.66284 2.61576 2.36024 4.09142 1.41586 5.99753C0.471482 7.90503 0 10.155 0 12.7473C0 15.3411 0.471482 17.5896 1.41586 19.4971C2.36024 21.4033 3.66284 22.8803 5.32647 23.9255C6.99011 24.9721 8.89445 25.4947 11.0395 25.4947C12.403 25.4947 13.6546 25.2884 14.7943 24.8772C15.9341 24.4646 16.9422 23.8911 17.82 23.1567C18.6979 22.4223 19.4214 21.5628 19.9906 20.5822C20.5597 19.6003 20.9491 18.54 21.1572 17.4012H18.8126C18.6384 18.2498 18.3241 19.0364 17.871 19.7639C17.4179 20.4915 16.8502 21.1227 16.1677 21.6604C15.4853 22.1982 14.7122 22.6162 13.8471 22.9147C12.982 23.2131 12.0462 23.363 11.0409 23.363C9.42681 23.363 7.95715 22.9573 6.63048 22.1459C5.30382 21.3345 4.24334 20.1408 3.44904 18.5647C2.65474 16.99 2.2583 15.0509 2.2583 12.7487C2.2583 10.463 2.65474 8.5294 3.44904 6.95059C4.24334 5.37041 5.30382 4.17256 6.63048 3.35702Z" fill="#1E1E1F"/>
<path d="M59.9534 7.53093C59.2709 7.07434 58.5332 6.7539 57.7389 6.56824C56.9446 6.38258 56.1815 6.28906 55.4495 6.28906C54.4768 6.28906 53.5154 6.42384 52.5682 6.69477C51.6196 6.96569 50.763 7.40578 49.9984 8.01502C49.2339 8.62564 48.635 9.43842 48.2017 10.4561L50.3099 11.1946C50.6596 10.3942 51.2685 9.69972 52.1378 9.11111C53.0071 8.52112 54.1313 8.22681 55.5118 8.22681C56.9673 8.22681 58.083 8.59263 58.8617 9.3229C59.639 10.0545 60.0284 11.0544 60.0284 12.3224V12.7583C60.0284 13.2273 59.833 13.5656 59.4422 13.776C59.0515 13.9864 58.4837 14.1391 57.7389 14.2367C56.9942 14.333 56.0866 14.4471 55.0134 14.5764C53.9317 14.7057 52.942 14.8872 52.0443 15.121C51.1467 15.3548 50.368 15.6739 49.711 16.0782C49.054 16.4825 48.5472 16.9996 48.189 17.6295C47.8307 18.2594 47.6523 19.035 47.6523 19.9565C47.6523 21.1516 47.9355 22.1679 48.5004 23.004C49.0654 23.8402 49.8271 24.4783 50.7828 24.9184C51.7385 25.3585 52.7948 25.5785 53.9515 25.5785C55.0162 25.5785 55.9436 25.4135 56.7337 25.0821C57.5237 24.7506 58.1807 24.327 58.7046 23.8099C59.2284 23.2928 59.6235 22.7592 59.8896 22.2105H60.027V25.155H62.2471V12.5163C62.2471 11.273 62.0347 10.2443 61.6113 9.43292C61.1894 8.62151 60.6358 7.98752 59.9534 7.53093ZM60.0284 18.0187C60.0284 19.0364 59.7934 19.9675 59.3233 20.8119C58.8532 21.6563 58.1864 22.3329 57.3213 22.8418C56.4562 23.3506 55.4339 23.605 54.2531 23.605C52.9972 23.605 51.9537 23.2956 51.1212 22.6781C50.2901 22.0606 49.8738 21.1859 49.8738 20.0541C49.8738 19.3032 50.0777 18.6871 50.4855 18.2057C50.8933 17.7258 51.4794 17.3476 52.244 17.0725C53.0086 16.7975 53.9317 16.5953 55.0134 16.466C55.4127 16.4179 55.8615 16.3615 56.3613 16.2969C56.8597 16.2322 57.3609 16.1538 57.865 16.0603C58.3676 15.9682 58.8136 15.8609 59.2001 15.7399C59.5866 15.6189 59.8627 15.4813 60.0298 15.3273V18.0187H60.0284Z" fill="#1E1E1F"/>
<path d="M68.9355 6.54346H66.7026V25.1563H68.9355V6.54346Z" fill="#1E1E1F"/>
<path d="M67.8381 0.241943C67.3893 0.241943 66.9999 0.393223 66.6714 0.695781C66.343 0.998339 66.1787 1.36416 66.1787 1.79187C66.1787 2.21957 66.343 2.5854 66.6714 2.88795C66.9999 3.19051 67.3935 3.34179 67.8508 3.34179C68.2997 3.34179 68.689 3.19051 69.0175 2.88795C69.346 2.5854 69.5102 2.21957 69.5102 1.79187C69.5102 1.36416 69.346 0.998339 69.0175 0.695781C68.6876 0.393223 68.2954 0.241943 67.8381 0.241943Z" fill="#1E1E1F"/>
<path d="M81.031 6.2644C79.8247 6.2644 78.7458 6.55321 77.7943 7.13082C76.8414 7.70843 76.1746 8.4662 75.7923 9.40276H75.6295V6.54358H73.4717V25.1564H75.6918V13.1366C75.6918 12.2152 75.9169 11.3955 76.3657 10.6763C76.8145 9.95699 77.4276 9.39451 78.2063 8.98605C78.9836 8.5776 79.8714 8.37406 80.8696 8.37406C81.1612 8.37406 81.4302 8.39056 81.6809 8.4222C81.93 8.4552 82.1056 8.47858 82.2047 8.49509V6.30154C82.0546 6.29328 81.8677 6.28503 81.644 6.27678C81.4175 6.26853 81.2136 6.2644 81.031 6.2644Z" fill="#1E1E1F"/>
<path d="M100.416 3.35702C101.742 2.54149 103.212 2.13304 104.826 2.13304C105.833 2.13304 106.767 2.28294 107.632 2.58137C108.497 2.87981 109.27 3.30064 109.953 3.84112C110.635 4.38297 111.203 5.01422 111.656 5.73761C112.109 6.461 112.424 7.24627 112.598 8.09481H114.942C114.734 6.94784 114.345 5.88476 113.776 4.90832C113.207 3.93051 112.483 3.07234 111.605 2.33383C110.727 1.59531 109.719 1.02182 108.58 0.613368C107.441 0.203539 106.19 0 104.825 0C102.68 0 100.774 0.522601 99.1116 1.56918C97.448 2.61576 96.144 4.09142 95.201 5.99753C94.2566 7.90365 93.7852 10.1536 93.7852 12.7473C93.7852 15.3411 94.2566 17.5896 95.201 19.4971C96.1454 21.4033 97.448 22.8803 99.1116 23.9255C100.775 24.9721 102.68 25.4947 104.825 25.4947C106.188 25.4947 107.44 25.2884 108.58 24.8772C109.719 24.4646 110.727 23.8911 111.605 23.1567C112.483 22.4223 113.207 21.5628 113.776 20.5822C114.345 19.6003 114.734 18.54 114.942 17.4012H112.598C112.424 18.2498 112.109 19.0364 111.656 19.7639C111.203 20.4915 110.635 21.1227 109.953 21.6604C109.27 22.1982 108.497 22.6162 107.632 22.9147C106.767 23.2131 105.831 23.363 104.826 23.363C103.212 23.363 101.742 22.9573 100.416 22.1459C99.089 21.3345 98.0285 20.1408 97.2342 18.5647C96.4399 16.99 96.0435 15.0509 96.0435 12.7487C96.0435 10.463 96.4399 8.5294 97.2342 6.95059C98.0285 5.37041 99.089 4.17256 100.416 3.35702Z" fill="#1E1E1F"/>
<path d="M130.441 7.51305C129.176 6.69752 127.716 6.28906 126.061 6.28906C124.406 6.28906 122.945 6.69477 121.676 7.50617C120.408 8.31758 119.417 9.44942 118.702 10.899C117.987 12.3485 117.628 14.0277 117.628 15.9338C117.628 17.8234 117.987 19.4902 118.702 20.9315C119.417 22.3728 120.409 23.5019 121.676 24.3188C122.945 25.1343 124.406 25.5428 126.061 25.5428C127.716 25.5428 129.178 25.1343 130.446 24.3188C131.715 23.5033 132.706 22.3742 133.421 20.9315C134.136 19.4889 134.494 17.8234 134.494 15.9338C134.494 14.0277 134.135 12.3512 133.415 10.9045C132.696 9.45905 131.705 8.32858 130.441 7.51305ZM131.545 19.7515C131.066 20.9068 130.366 21.8323 129.442 22.5268C128.519 23.2213 127.392 23.5693 126.061 23.5693C124.73 23.5693 123.603 23.2227 122.68 22.5268C121.757 21.8323 121.056 20.9068 120.578 19.7515C120.099 18.5963 119.86 17.3242 119.86 15.9352C119.86 14.5462 120.099 13.2699 120.578 12.1064C121.056 10.943 121.758 10.0105 122.686 9.30777C123.613 8.60501 124.737 8.25294 126.06 8.25294C127.391 8.25294 128.518 8.60501 129.441 9.30777C130.364 10.0105 131.065 10.943 131.544 12.1064C132.022 13.2699 132.261 14.5462 132.261 15.9352C132.261 17.3242 132.022 18.5963 131.545 19.7515Z" fill="#1E1E1F"/>
<path d="M140.261 0.3396H138.041V25.1563H140.261V0.3396Z" fill="#1E1E1F"/>
<path d="M146.964 0.3396H144.744V25.1563H146.964V0.3396Z" fill="#1E1E1F"/>
<path d="M164.499 8.52378C163.73 7.76876 162.862 7.20765 161.898 6.83908C160.934 6.47188 159.931 6.2876 158.892 6.2876C157.237 6.2876 155.78 6.70155 154.52 7.52946C153.26 8.35737 152.274 9.50022 151.564 10.9594C150.853 12.4172 150.498 14.084 150.498 15.9571C150.498 17.8398 150.853 19.5011 151.564 20.9438C152.274 22.3865 153.283 23.5128 154.589 24.3242C155.895 25.1356 157.442 25.5413 159.231 25.5413C160.512 25.5413 161.645 25.3419 162.63 24.9417C163.616 24.5415 164.44 24.0106 165.101 23.3478C165.762 22.6849 166.238 21.9629 166.529 21.179L164.421 20.512C164.18 21.0689 163.825 21.5805 163.355 22.0454C162.885 22.5102 162.307 22.8802 161.621 23.1539C160.934 23.4289 160.138 23.5664 159.232 23.5664C157.901 23.5664 156.75 23.2639 155.776 22.6574C154.803 22.0509 154.053 21.1968 153.525 20.0953C153.029 19.0597 152.769 17.8563 152.739 16.4907H167.004V15.4249C167.004 13.8653 166.779 12.5148 166.33 11.372C165.877 10.2291 165.268 9.28017 164.499 8.52378ZM152.747 14.5887C152.815 13.5517 153.072 12.5863 153.52 11.6924C154.04 10.6582 154.762 9.82616 155.685 9.19628C156.608 8.56641 157.677 8.25148 158.891 8.25148C160.039 8.25148 161.051 8.53066 161.929 9.08764C162.807 9.64462 163.492 10.4024 163.988 11.3596C164.482 12.3168 164.73 13.3936 164.73 14.5887H152.747Z" fill="#1E1E1F"/>
<path d="M182.049 21.7746C181.57 22.348 180.98 22.7909 180.277 23.1017C179.575 23.4125 178.799 23.5679 177.951 23.5679C176.695 23.5679 175.599 23.2406 174.663 22.586C173.728 21.9313 173.003 21.025 172.486 19.8657C171.971 18.7063 171.713 17.371 171.713 15.8609C171.713 14.3577 171.976 13.0361 172.506 11.8919C173.034 10.749 173.767 9.8565 174.707 9.21425C175.648 8.572 176.728 8.25157 177.951 8.25157C179.315 8.25157 180.44 8.62564 181.325 9.37241C182.211 10.1192 182.771 11.0186 183.003 12.0679H185.248C185.074 10.9127 184.648 9.90051 183.97 9.03272C183.292 8.16492 182.434 7.48967 181.395 7.0097C180.355 6.52973 179.194 6.28906 177.914 6.28906C176.242 6.28906 174.775 6.70302 173.511 7.53093C172.247 8.35884 171.26 9.50031 170.548 10.954C169.837 12.4076 169.481 14.0676 169.481 15.9338C169.481 17.7835 169.831 19.4311 170.529 20.8779C171.227 22.3247 172.211 23.4634 173.48 24.2954C174.748 25.1274 176.239 25.5442 177.953 25.5442C179.283 25.5442 180.466 25.2939 181.502 24.7933C182.537 24.2927 183.381 23.6037 184.035 22.7276C184.688 21.8516 185.097 20.8517 185.264 19.7282H183.019C182.849 20.5189 182.526 21.2011 182.049 21.7746Z" fill="#1E1E1F"/>
<path d="M195.681 23.2709C195.473 23.3067 195.223 23.3259 194.932 23.3259C194.433 23.3259 193.963 23.2352 193.522 23.0536C193.081 22.8721 192.723 22.5613 192.448 22.1212C192.174 21.6811 192.036 21.0732 192.036 20.2976V8.42218H196.091V6.54357H192.036V2.08496H189.804V6.54357H186.946V8.42218H189.804V20.8064C189.804 21.8241 190.044 22.6768 190.527 23.3631C191.01 24.0493 191.627 24.5664 192.379 24.9144C193.132 25.2609 193.915 25.4356 194.731 25.4356C195.197 25.4356 195.587 25.4012 195.903 25.3324C196.219 25.2637 196.485 25.1894 196.702 25.1083L196.227 23.1568C196.072 23.1967 195.889 23.2352 195.681 23.2709Z" fill="#1E1E1F"/>
<path d="M200.607 0.241943C200.158 0.241943 199.768 0.393223 199.44 0.695781C199.112 0.998339 198.947 1.36416 198.947 1.79187C198.947 2.21957 199.112 2.5854 199.44 2.88795C199.768 3.19051 200.162 3.34179 200.619 3.34179C201.068 3.34179 201.458 3.19051 201.786 2.88795C202.115 2.5854 202.279 2.21957 202.279 1.79187C202.279 1.36416 202.115 0.998339 201.786 0.695781C201.456 0.393223 201.064 0.241943 200.607 0.241943Z" fill="#1E1E1F"/>
<path d="M201.704 6.54346H199.471V25.1563H201.704V6.54346Z" fill="#1E1E1F"/>
<path d="M217.943 7.51305C216.679 6.69752 215.219 6.28906 213.564 6.28906C211.909 6.28906 210.448 6.69477 209.179 7.50617C207.911 8.31758 206.92 9.44942 206.205 10.899C205.49 12.3485 205.131 14.0277 205.131 15.9338C205.131 17.8234 205.488 19.4902 206.205 20.9315C206.92 22.3728 207.912 23.5019 209.179 24.3188C210.448 25.1343 211.909 25.5428 213.564 25.5428C215.219 25.5428 216.681 25.1343 217.949 24.3188C219.218 23.5033 220.209 22.3742 220.924 20.9315C221.639 19.4889 221.997 17.8234 221.997 15.9338C221.997 14.0277 221.637 12.3512 220.918 10.9045C220.199 9.45905 219.206 8.32858 217.943 7.51305ZM219.046 19.7515C218.568 20.9068 217.867 21.8323 216.944 22.5268C216.021 23.2213 214.894 23.5693 213.563 23.5693C212.232 23.5693 211.105 23.2227 210.182 22.5268C209.259 21.8323 208.558 20.9068 208.079 19.7515C207.601 18.5963 207.361 17.3242 207.361 15.9352C207.361 14.5462 207.601 13.2699 208.079 12.1064C208.558 10.943 209.26 10.0105 210.187 9.30777C211.115 8.60501 212.239 8.25294 213.561 8.25294C214.892 8.25294 216.019 8.60501 216.942 9.30777C217.866 10.0105 218.566 10.943 219.045 12.1064C219.524 13.2699 219.763 14.5462 219.763 15.9352C219.764 17.3242 219.525 18.5963 219.046 19.7515Z" fill="#1E1E1F"/>
<path d="M239.183 9.37936C238.637 8.36991 237.877 7.60389 236.9 7.08266C235.923 6.56144 234.789 6.30151 233.501 6.30151C232.095 6.30151 230.917 6.59032 229.964 7.16793C229.011 7.74554 228.312 8.51157 227.861 9.46462H227.662V6.54356H225.504V25.1564H227.724V13.523C227.724 12.4407 227.951 11.5055 228.404 10.7175C228.857 9.92946 229.474 9.32572 230.256 8.90627C231.037 8.48681 231.932 8.2764 232.937 8.2764C234.41 8.2764 235.583 8.72061 236.461 9.60903C237.339 10.4974 237.778 11.7049 237.778 13.2315V25.155H239.998V13.0995C240 11.6293 239.728 10.3888 239.183 9.37936Z" fill="#1E1E1F"/>
</g>
<defs>
<clipPath id="clip0_20_812">
<rect width="240" height="25.5799" fill="white"/>
</clipPath>
</defs>
</svg>
