<svg width="37" height="28" viewBox="0 0 37 28" fill="none" xmlns="http://www.w3.org/2000/svg">
<g clip-path="url(#clip0_20_777)">
<path d="M6.56891 27.7725V25.9263C6.59068 25.6122 6.47624 25.304 6.25479 25.0802C6.03334 24.8564 5.7263 24.7387 5.41199 24.7571C4.99778 24.73 4.60163 24.9304 4.37814 25.2802C4.17439 24.9408 3.80131 24.7401 3.40584 24.7571C3.0615 24.7397 2.7337 24.9059 2.5443 25.194V24.831H1.9043V27.7725H2.55045V26.154C2.52262 25.9504 2.58715 25.7449 2.72643 25.5937C2.86571 25.4425 3.06519 25.3614 3.27045 25.3725C3.69507 25.3725 3.91045 25.6494 3.91045 26.1479V27.7848H4.5566V26.154C4.52992 25.9506 4.59484 25.7458 4.73386 25.5949C4.87288 25.444 5.07167 25.3625 5.2766 25.3725C5.71353 25.3725 5.92276 25.6494 5.92276 26.1479V27.7848L6.56891 27.7725ZM16.1289 24.831H15.0766V23.9386H14.4305V24.831H13.8458V25.4156H14.4428V26.7694C14.4428 27.4525 14.7074 27.8586 15.4643 27.8586C15.7471 27.8596 16.0244 27.7807 16.2643 27.631L16.0797 27.0833C15.9081 27.1856 15.7133 27.2428 15.5135 27.2494C15.2058 27.2494 15.0889 27.0525 15.0889 26.7571V25.4156H16.1351L16.1289 24.831ZM21.5874 24.7571C21.2695 24.7478 20.972 24.913 20.812 25.1879V24.831H20.1781V27.7725H20.8181V26.1233C20.8181 25.6371 21.0274 25.3663 21.4335 25.3663C21.5704 25.3645 21.7063 25.3896 21.8335 25.4402L22.0304 24.8248C21.8843 24.7725 21.7303 24.7455 21.5751 24.7448L21.5874 24.7571ZM13.3351 25.0648C12.9728 24.8494 12.5563 24.7426 12.1351 24.7571C11.3905 24.7571 10.9043 25.114 10.9043 25.6986C10.9043 26.1786 11.2612 26.474 11.9197 26.5663L12.2274 26.6094C12.5781 26.6586 12.7443 26.751 12.7443 26.9171C12.7443 27.1448 12.5105 27.274 12.0735 27.274C11.7221 27.2842 11.3774 27.1758 11.0951 26.9663L10.7874 27.4648C11.1602 27.7251 11.6067 27.8588 12.0612 27.8463C12.9105 27.8463 13.4028 27.4463 13.4028 26.8863C13.4028 26.3263 13.0151 26.0986 12.3751 26.0063L12.0674 25.9633C11.7905 25.9263 11.5689 25.871 11.5689 25.674C11.5689 25.4771 11.7781 25.3294 12.1289 25.3294C12.4531 25.3332 12.7709 25.4201 13.052 25.5817L13.3351 25.0648ZM30.4766 24.7571C30.1587 24.7478 29.8612 24.913 29.7012 25.1879V24.831H29.0674V27.7725H29.7074V26.1233C29.7074 25.6371 29.9166 25.3663 30.3228 25.3663C30.4596 25.3645 30.5956 25.3896 30.7228 25.4402L30.9197 24.8248C30.7735 24.7725 30.6195 24.7455 30.4643 24.7448L30.4766 24.7571ZM22.2304 26.2956C22.2151 26.7135 22.3765 27.1187 22.6752 27.4115C22.9739 27.7043 23.3821 27.8577 23.7997 27.834C24.184 27.8536 24.5616 27.7284 24.8581 27.4833L24.5504 26.9663C24.3292 27.135 24.0594 27.2279 23.7812 27.231C23.2907 27.1913 22.9128 26.7816 22.9128 26.2894C22.9128 25.7973 23.2907 25.3876 23.7812 25.3479C24.0594 25.351 24.3292 25.4438 24.5504 25.6125L24.8581 25.0956C24.5616 24.8504 24.184 24.7252 23.7997 24.7448C23.3821 24.7211 22.9739 24.8745 22.6752 25.1674C22.3765 25.4602 22.2151 25.8653 22.2304 26.2833V26.2956ZM28.2243 26.2956V24.831H27.5843V25.1879C27.3638 24.9042 27.0203 24.7439 26.6612 24.7571C25.8115 24.7571 25.1228 25.4459 25.1228 26.2956C25.1228 27.1452 25.8115 27.834 26.6612 27.834C27.0203 27.8473 27.3638 27.687 27.5843 27.4033V27.7602H28.2243V26.2956ZM25.8428 26.2956C25.8712 25.8127 26.2804 25.4411 26.7638 25.4593C27.2472 25.4774 27.6274 25.8786 27.6196 26.3623C27.6117 26.8459 27.2188 27.2346 26.7351 27.2371C26.4888 27.2402 26.2524 27.1403 26.0829 26.9615C25.9135 26.7828 25.8264 26.5413 25.8428 26.2956ZM18.1197 24.7571C17.27 24.769 16.5909 25.4674 16.6028 26.3171C16.6147 27.1668 17.3131 27.8459 18.1628 27.834C18.6054 27.8568 19.0408 27.7142 19.3843 27.434L19.0766 26.9602C18.8336 27.155 18.5326 27.2633 18.2212 27.2679C17.7813 27.3057 17.3912 26.9865 17.3412 26.5479H19.5258C19.5258 26.4679 19.5258 26.3879 19.5258 26.3017C19.5258 25.3786 18.9535 24.7633 18.1289 24.7633L18.1197 24.7571ZM18.1197 25.3294C18.3131 25.3253 18.5002 25.3982 18.6399 25.5321C18.7795 25.666 18.8603 25.8498 18.8643 26.0433H17.3258C17.349 25.6324 17.6961 25.3154 18.1074 25.3294H18.1197ZM34.1535 26.3017V23.6494H33.5381V25.1879C33.3176 24.9042 32.9741 24.7439 32.6151 24.7571C31.7654 24.7571 31.0766 25.4459 31.0766 26.2956C31.0766 27.1452 31.7654 27.834 32.6151 27.834C32.9741 27.8473 33.3176 27.687 33.5381 27.4033V27.7602H34.1535V26.3017ZM35.2212 27.3448C35.2612 27.3443 35.3009 27.3516 35.3381 27.3663C35.3735 27.3808 35.4058 27.4016 35.4335 27.4279C35.4606 27.4544 35.4825 27.4857 35.4981 27.5202C35.5296 27.5928 35.5296 27.6752 35.4981 27.7479C35.4825 27.7824 35.4606 27.8137 35.4335 27.8402C35.4058 27.8664 35.3735 27.8873 35.3381 27.9017C35.3013 27.918 35.2615 27.9264 35.2212 27.9263C35.1022 27.9254 34.9943 27.8559 34.9443 27.7479C34.9132 27.6752 34.9132 27.5929 34.9443 27.5202C34.96 27.4857 34.9819 27.4544 35.0089 27.4279C35.0366 27.4016 35.069 27.3808 35.1043 27.3663C35.1444 27.3504 35.1874 27.3431 35.2304 27.3448H35.2212ZM35.2212 27.8648C35.2519 27.865 35.2823 27.8587 35.3104 27.8463C35.3369 27.8345 35.3609 27.8178 35.3812 27.7971C35.461 27.7101 35.461 27.5765 35.3812 27.4894C35.361 27.4686 35.337 27.4519 35.3104 27.4402C35.2823 27.4279 35.2519 27.4216 35.2212 27.4217C35.1905 27.4219 35.1602 27.4282 35.132 27.4402C35.1043 27.4515 35.0792 27.4683 35.0581 27.4894C34.9784 27.5765 34.9784 27.7101 35.0581 27.7971C35.0793 27.8182 35.1044 27.8349 35.132 27.8463C35.163 27.8597 35.1967 27.866 35.2304 27.8648H35.2212ZM35.2397 27.4986C35.2684 27.4973 35.2967 27.506 35.3197 27.5233C35.3388 27.5391 35.3491 27.5631 35.3474 27.5879C35.3483 27.6085 35.3405 27.6286 35.3258 27.6433C35.308 27.6595 35.2852 27.6692 35.2612 27.671L35.3504 27.7725H35.2797L35.1966 27.671H35.1689V27.7725H35.1105V27.5017L35.2397 27.4986ZM35.172 27.551V27.6248H35.2397C35.2517 27.6284 35.2646 27.6284 35.2766 27.6248C35.281 27.6161 35.281 27.6058 35.2766 27.5971C35.281 27.5884 35.281 27.5781 35.2766 27.5694C35.2646 27.5658 35.2517 27.5658 35.2397 27.5694L35.172 27.551ZM31.7874 26.3017C31.8158 25.8189 32.225 25.4473 32.7084 25.4654C33.1918 25.4836 33.572 25.8848 33.5642 26.3684C33.5564 26.8521 33.1634 27.2407 32.6797 27.2433C32.4334 27.2464 32.197 27.1465 32.0275 26.9677C31.8581 26.7889 31.771 26.5475 31.7874 26.3017ZM10.1781 26.3017V24.831H9.53814V25.1879C9.31765 24.9042 8.97414 24.7439 8.61507 24.7571C7.7654 24.7571 7.0766 25.4459 7.0766 26.2956C7.0766 27.1452 7.7654 27.834 8.61507 27.834C8.97414 27.8473 9.31765 27.687 9.53814 27.4033V27.7602H10.1781V26.3017ZM7.7966 26.3017C7.82506 25.8189 8.23428 25.4473 8.71765 25.4654C9.20102 25.4836 9.58123 25.8848 9.57341 26.3684C9.56559 26.8521 9.17262 27.2407 8.68891 27.2433C8.44156 27.2481 8.20351 27.149 8.03271 26.97C7.86191 26.791 7.77402 26.5486 7.79045 26.3017H7.7966Z" fill="#454546"/>
<path d="M34.8338 18.1358V17.6559H34.9785V17.5566H34.6123V17.6559H34.7692V18.1358H34.8338ZM35.5446 18.1358V17.5566H35.4338L35.3046 17.9704L35.1754 17.5566H35.0769V18.1358H35.1569V17.7014L35.2769 18.0779H35.36L35.48 17.7014V18.14L35.5446 18.1358Z" fill="#454546"/>
<path d="M17.0933 20.0981C17.1807 20.1714 17.2741 20.2446 17.366 20.3163C15.5924 21.4866 13.463 22.1667 11.177 22.1667C5.00306 22.1682 0 17.206 0 11.0841C0 4.96362 5.00306 0 11.1755 0C13.463 0 15.5924 0.681545 17.3615 1.85034C17.2711 1.92656 17.1807 1.99681 17.1129 2.07453C14.4667 4.34186 12.9522 7.62853 12.9522 11.0841C12.9522 14.5381 14.4606 17.8248 17.0933 20.0981ZM24.9912 0C22.7006 0 20.5743 0.681545 18.8052 1.85034C18.8956 1.92656 18.986 1.99681 19.0538 2.07453C21.7 4.34186 23.2145 7.62853 23.2145 11.0841C23.2145 14.5366 21.706 17.8203 19.0734 20.0981C18.986 20.1714 18.8926 20.2446 18.8006 20.3163C20.5743 21.4866 22.7006 22.1667 24.9897 22.1667C31.1636 22.1682 36.1667 17.206 36.1667 11.0841C36.1667 4.96512 31.1636 0 24.9912 0ZM18.0833 2.37644C17.9387 2.48854 17.7985 2.60063 17.6614 2.7217C15.3045 4.75288 13.8172 7.74361 13.8172 11.0841C13.8172 14.426 15.3045 17.4153 17.6614 19.4465C17.797 19.566 17.9402 19.6826 18.0833 19.7932C18.228 19.6826 18.3681 19.566 18.5053 19.4465C20.8606 17.4153 22.3495 14.426 22.3495 11.0841C22.3495 7.74361 20.8621 4.75288 18.5053 2.7217C18.3697 2.60213 18.228 2.48854 18.0833 2.37644Z" fill="#454546"/>
</g>
<defs>
<clipPath id="clip0_20_777">
<rect width="36.1667" height="28" fill="white"/>
</clipPath>
</defs>
</svg>
