<svg width="88" height="26" viewBox="0 0 88 26" fill="none" xmlns="http://www.w3.org/2000/svg">
<path d="M6.90918 2.81686H14.0867C14.7392 2.81686 16.6967 2.6002 17.5667 5.63353C18.2192 7.58353 19.0892 10.6169 20.3942 15.1669H20.8292C22.1342 10.4002 23.2217 7.1502 23.6567 5.63353C24.5267 2.6002 26.7017 2.81686 27.5717 2.81686H34.3142V23.6169H27.3542V11.2669H26.9192L23.2217 23.6169H18.0017L14.3042 11.2669H13.6517V23.6169H6.90918M37.1417 2.81686H44.1017V15.1669H44.7542L49.3217 4.98353C50.1917 3.03353 52.1492 2.81686 52.1492 2.81686H58.6742V23.6169H51.7142V11.2669H51.2792L46.7117 21.4502C45.8417 23.4002 43.6667 23.6169 43.6667 23.6169H37.1417M68.0267 17.3335V23.6169H61.5017V12.7835H82.8167C81.9467 15.3835 78.9017 17.3335 75.4217 17.3335" fill="#454546"/>
<path d="M83.2524 11.4831C84.1224 7.58307 81.5124 2.81641 75.8574 2.81641H61.0674C61.5024 7.36641 65.4174 11.4831 69.5499 11.4831" fill="#454546"/>
</svg>
