<svg width="402" height="144" viewBox="0 0 402 144" fill="none" xmlns="http://www.w3.org/2000/svg">
<path d="M0 31.6326H18.1024L14.951 51.7754H17.4271C19.0294 45.0875 22.3091 39.9079 27.2662 36.2359C32.2231 32.5639 38.1847 30.7303 45.1506 30.7351C51.7729 30.6147 58.2862 32.4233 63.8922 35.9391C69.3635 39.4609 73.7356 44.4405 76.5122 50.3132C79.4437 56.8157 80.9656 63.862 80.9782 70.9909C80.9908 78.1199 79.4936 85.1712 76.5848 91.684C73.8584 97.5442 69.5234 102.515 64.081 106.022C58.6688 109.496 52.3586 111.231 45.1506 111.226C38.4365 111.226 32.7388 109.467 28.0576 105.95C23.3765 102.432 19.8088 97.1535 17.3545 90.1135H14.951C15.0962 90.8373 15.5973 92.6107 16.4541 95.5057C17.5046 98.695 18.3178 101.441 18.8939 103.742C19.4427 105.842 19.7089 108.006 19.6853 110.176L19.5329 141.031H0V31.6326ZM51.0832 92.5092C54.3165 90.332 56.8761 87.2992 58.4753 83.7515C60.2852 79.7258 61.1828 75.3516 61.1037 70.9408C61.1803 66.5398 60.3088 62.1737 58.5478 58.1371C56.9948 54.5784 54.4493 51.5387 51.2139 49.3797C47.8989 47.3327 44.0777 46.2452 40.1783 46.2389C36.2786 46.2323 32.454 47.3073 29.1323 49.3433C25.9243 51.4977 23.4041 54.5248 21.871 58.0647C18.4793 66.3028 18.4637 75.5382 21.8274 83.7878C23.3584 87.329 25.8791 90.3564 29.0887 92.5092C32.3896 94.5622 36.2023 95.6503 40.0932 95.6503C43.9841 95.6503 47.7969 94.5622 51.0977 92.5092" fill="#1E1E1F"/>
<path d="M170.19 94.1533V110.33H160.119C156.159 110.33 153.216 109.555 151.289 108.006C150.354 107.284 149.603 106.351 149.099 105.284C148.594 104.218 148.349 103.047 148.384 101.869C148.398 100.493 148.625 99.1284 149.06 97.8227L150.512 91.5331H148.101C142.496 104.662 132.555 111.227 118.279 111.227C113.106 111.334 107.963 110.418 103.146 108.535C99.1069 106.966 95.6196 104.248 93.1187 100.718C90.7058 97.0952 89.4731 92.8184 89.5896 88.4715C89.5896 83.1639 90.9671 78.7972 93.7214 75.3713C96.4757 71.9456 100.506 69.2362 105.812 67.2434C111.136 65.2747 117.848 63.8153 125.947 62.8646L142.997 60.6933V58.2253C142.997 54.1288 141.544 50.9198 138.64 48.5989C135.735 46.278 131.715 45.1175 126.579 45.1175C122.174 45.1175 118.519 46.1671 115.614 48.2661C114.257 49.1736 113.108 50.3566 112.241 51.7371C111.374 53.1176 110.809 54.665 110.582 56.2781L91.7682 55.1202C92.1489 50.315 93.9959 45.7408 97.0614 42.0127C100.363 38.183 104.622 35.2914 109.406 33.6313C114.59 31.6773 120.615 30.7121 127.479 30.7363C138.613 30.7363 147.201 33.1946 153.242 38.1116C159.284 43.0282 162.302 50.1046 162.297 59.3397V87.9434C162.297 92.0834 164.401 94.1533 168.607 94.1533H170.19ZM133.23 94.6094C136.228 93.1603 138.734 90.8682 140.441 88.0157C142.193 84.9924 143.077 81.547 142.997 78.0566V72.8888L126.245 75.0601C120.683 75.813 116.483 77.1278 113.646 79.0048C112.283 79.8497 111.168 81.0395 110.416 82.4533C109.663 83.867 109.3 85.4541 109.362 87.0531C109.312 88.4559 109.608 89.8495 110.225 91.1117C110.841 92.3736 111.759 93.4655 112.898 94.2907C115.251 96.0666 118.429 96.9519 122.433 96.9472C126.171 97.027 129.876 96.2337 133.252 94.631" fill="#1E1E1F"/>
<path d="M178.598 94.1543H192.496V47.8833H178.598V31.6348H210.598L205.878 50.7786H208.282C210.106 46.8966 212.398 43.2506 215.107 39.922C217.358 37.2276 220.214 35.1002 223.443 33.7118C227.119 32.249 231.054 31.5471 235.011 31.6492H240.943L241.996 48.9473H230.567C224.104 48.9473 219.409 50.8776 216.48 54.7374C213.551 58.5975 212.099 64.412 212.123 72.1805V94.1906H236.536V110.367H178.598V94.1543Z" fill="#1E1E1F"/>
<path d="M271.961 2.95947H252.428V110.331H271.961V2.95947Z" fill="#1E1E1F"/>
<path d="M364.171 94.1533V110.33H354.115C350.161 110.33 347.218 109.555 345.287 108.006C344.351 107.284 343.6 106.352 343.095 105.285C342.589 104.219 342.344 103.048 342.382 101.869C342.394 100.493 342.624 99.1284 343.057 97.8227L344.508 91.5331H342.105C336.484 104.662 326.54 111.227 312.269 111.227C307.096 111.334 301.953 110.418 297.136 108.535C293.097 106.966 289.609 104.248 287.108 100.718C284.689 97.0952 283.453 92.815 283.572 88.4643C283.572 83.1567 284.949 78.79 287.704 75.3641C290.458 71.9384 294.491 69.229 299.801 67.2362C305.126 65.2675 311.835 63.8078 319.929 62.8574L336.986 60.6861V58.2181C336.986 54.1213 335.535 50.9126 332.63 48.5917C329.725 46.2708 325.705 45.1103 320.567 45.1103C316.164 45.1103 312.508 46.1599 309.604 48.2589C308.247 49.1664 307.097 50.3494 306.23 51.7299C305.363 53.1104 304.798 54.6578 304.572 56.2709L285.751 55.1202C286.134 50.314 287.984 45.7401 291.051 42.0127C294.352 38.183 298.611 35.2914 303.396 33.6313C308.58 31.6773 314.603 30.7121 321.462 30.7363C332.596 30.7363 341.185 33.1946 347.231 38.1116C353.277 43.0282 356.307 50.1046 356.323 59.3397V87.9434C356.323 92.0834 358.427 94.1533 362.632 94.1533H364.171ZM327.213 94.6094C330.209 93.1581 332.715 90.8663 334.423 88.0157C336.173 84.9911 337.055 81.5467 336.98 78.0566V72.8888L320.228 75.0601C314.669 75.813 310.465 77.1278 307.614 79.0048C306.251 79.8497 305.136 81.0395 304.384 82.4533C303.631 83.867 303.268 85.4541 303.33 87.0531C303.28 88.4552 303.575 89.8483 304.19 91.1102C304.805 92.372 305.722 93.4642 306.859 94.2907C309.212 96.0666 312.392 96.9519 316.399 96.9472C320.14 97.027 323.843 96.2337 327.219 94.631" fill="#1E1E1F"/>
<path d="M356.951 23.9339L372.551 27.3501C372.607 27.2199 372.657 27.0823 372.708 26.952L359.319 18.4115L366.806 10.6671C369.774 15.2559 372.667 19.7216 375.519 24.1872L375.983 24.0063C374.85 18.8675 373.71 13.7215 372.551 8.47412H383.266C382.076 13.6998 380.898 18.8603 379.73 24.0208L380.233 24.2017L388.829 10.906C391.306 13.432 393.753 15.9362 396.256 18.5056L383.094 26.9376L383.244 27.3501L398.879 23.9267V34.682L383.238 31.2368C383.166 31.3888 383.1 31.5334 383.028 31.6784L396.426 40.1753L388.844 47.7388L380.239 34.4576L379.768 34.6169C380.936 39.8134 382.114 45.0031 383.304 50.2794H372.569C373.725 45.0391 374.865 39.8497 376.005 34.6529L375.613 34.4576C374.03 36.5637 372.708 38.8652 371.257 41.0728C369.806 43.2804 368.352 45.5459 366.901 47.833L359.536 40.067L372.73 31.7072L372.563 31.2513L356.951 34.6748V23.9339Z" fill="#1E1E1F"/>
</svg>
