<svg width="19" height="19" viewBox="0 0 19 19" fill="none" xmlns="http://www.w3.org/2000/svg">
<path d="M2.48135 9.2853C1.69133 7.90775 1.30987 6.7829 1.07986 5.64268C0.739685 3.95631 1.51818 2.30901 2.80782 1.25789C3.35287 0.813652 3.97769 0.965432 4.3 1.54367L5.02765 2.84909C5.60441 3.8838 5.89279 4.40116 5.83559 4.94966C5.77839 5.49816 5.38947 5.94488 4.61164 6.83834L2.48135 9.2853ZM2.48135 9.2853C4.08042 12.0736 6.58986 14.5844 9.38137 16.1853M9.38137 16.1853C10.7589 16.9753 11.8838 17.3568 13.024 17.5868C14.7103 17.927 16.3577 17.1485 17.4088 15.8588C17.853 15.3138 17.7012 14.689 17.123 14.3667L15.8176 13.639C14.7829 13.0623 14.2655 12.7739 13.717 12.8311C13.1685 12.8883 12.7218 13.2772 11.8283 14.055L9.38137 16.1853Z" stroke="#8B8B8B" stroke-linejoin="round"/>
<path d="M11 5.02654C12.186 5.5302 13.1365 6.48064 13.6402 7.66667M11.545 1C14.4927 1.85063 16.8159 4.17377 17.6667 7.12136" stroke="#8B8B8B" stroke-linecap="round"/>
</svg>
