<svg width="22" height="20" viewBox="0 0 22 20" fill="none" xmlns="http://www.w3.org/2000/svg">
<path d="M10.9854 13.4083L14.2268 17.0936C15.4277 18.4589 16.0282 19.1416 16.6567 18.9754C17.2852 18.8092 17.5008 17.9108 17.9318 16.1138L20.3229 6.1459C20.9868 3.37832 21.3187 1.99454 20.5808 1.312C19.843 0.629466 18.564 1.13725 16.0061 2.15282L4.13876 6.86449C2.09293 7.67674 1.07001 8.08287 1.00507 8.78084C0.998423 8.85223 0.998313 8.92412 1.00474 8.99554C1.06754 9.69372 2.08921 10.1033 4.13255 10.9223C5.05838 11.2934 5.5213 11.479 5.8532 11.8344C5.89052 11.8743 5.9264 11.9157 5.96078 11.9584C6.26658 12.3384 6.39709 12.8371 6.65808 13.8344L7.14653 15.701C7.4005 16.6715 7.52749 17.1568 7.86008 17.223C8.19267 17.2891 8.48225 16.8867 9.06139 16.0819L10.9854 13.4083ZM10.9854 13.4083L10.6676 13.0771C10.3059 12.7001 10.1251 12.5117 10.1251 12.2775C10.1251 12.0433 10.3059 11.8548 10.6676 11.4778L14.2406 7.75409" stroke="#BABABA" stroke-linecap="round" stroke-linejoin="round"/>
</svg>
