<svg width="80" height="26" viewBox="0 0 80 26" fill="none" xmlns="http://www.w3.org/2000/svg">
<g clip-path="url(#clip0_20_775)">
<path d="M52.0952 0.0400391C46.4208 0.0400391 41.3496 2.98454 41.3496 8.42349C41.3496 14.6616 50.3432 15.0925 50.3432 18.2267C50.3432 19.5464 48.8328 20.7276 46.252 20.7276C42.5904 20.7276 39.8536 19.0772 39.8536 19.0772L38.6824 24.5666C38.6824 24.5666 41.8352 25.9608 46.0208 25.9608C52.2248 25.9608 57.1072 22.8721 57.1072 17.3395C57.1072 10.7474 48.076 10.3294 48.076 7.42091C48.076 6.38709 49.316 5.25477 51.8888 5.25477C54.792 5.25477 57.16 6.45516 57.16 6.45516L58.3064 1.15394C58.3064 1.15394 55.7288 0.0400391 52.0944 0.0400391H52.0952ZM0.177639 0.440433L0.0400391 1.24042C0.0400391 1.24042 2.42724 1.67765 4.57764 2.55051C7.34644 3.5507 7.54324 4.13367 8.00964 5.94185L13.0904 25.5476H19.9016L30.3944 0.440433H23.5992L16.8568 17.5108L14.1056 3.04059C13.8536 1.38456 12.5752 0.439633 11.0112 0.439633H0.178439L0.177639 0.440433ZM33.1272 0.440433L27.7968 25.5476H34.2768L39.588 0.440433H33.1272ZM69.268 0.440433C67.7056 0.440433 66.8776 1.27806 66.2704 2.7411L56.7768 25.5476H63.572L64.8864 21.7462H73.1648L73.964 25.5476H79.96L74.7296 0.440433H69.268ZM70.152 7.22391L72.1664 16.6452H66.7704L70.1528 7.22391H70.152Z" fill="#454546"/>
</g>
<defs>
<clipPath id="clip0_20_775">
<rect width="80" height="26" fill="white"/>
</clipPath>
</defs>
</svg>
