<svg width="22" height="14" viewBox="0 0 22 14" fill="none" xmlns="http://www.w3.org/2000/svg">
<path d="M13 5.74857V2.05285C13 1.22025 12.8489 1.05286 12.0196 1.05286L9.6696 1.0001C8.93806 1.0001 8.5723 1.0001 8.42446 1.23724C8.27662 1.47437 8.44019 1.79868 8.76735 2.4473C8.94905 2.80755 9.04616 3.06845 9.04616 3.47222V6.13154C9.04616 6.9725 9.04616 7.39298 8.72664 7.51775C8.40712 7.64252 8.14158 7.36023 7.6105 6.79566C6.30883 5.4119 5.63136 3.6843 5.18601 1.80138C5.09378 1.41142 5.04766 1.21643 4.91001 1.10827C4.77235 1.0001 4.5763 1.0001 4.18419 1.0001H1.98492C1.50242 1.0001 1.26117 1.0001 1.11047 1.1707C0.959771 1.34129 0.988991 1.5589 1.04743 1.99411C1.57467 5.92071 5.028 12.3595 11.4074 12.9737C12.5372 13.0825 13 12.7771 13 11.5391C13 10.8374 12.9851 9.70286 13.8682 9.5542C14.3306 9.47637 14.6421 9.64056 15.1594 10.0745C16.0555 10.826 16.5247 11.7434 16.8517 12.4406C17.0686 12.9032 17.2299 13 17.7396 13H19.8138C20.8618 13 21.1473 12.7442 20.6805 11.7605C20.0895 10.5151 19.2484 9.52568 18.4836 8.86696C17.8484 8.31987 17.5308 8.04631 17.5131 7.84498C17.4953 7.64365 17.7284 7.35859 18.1944 6.78847C19.0948 5.68709 20.3202 3.9578 20.8922 2.12282C21.1756 1.21377 20.909 1.0001 19.988 1.0001H18.1249C17.2224 1.0001 17.223 0.968866 17.01 1.99279C16.6642 3.65426 15.5317 5.25114 14.4679 6.33819C13.9633 6.85386 13.6581 7.16445 13.3432 7.03791C13.0284 6.91137 13 6.52377 13 5.74857Z" stroke="#BABABA" stroke-linecap="round" stroke-linejoin="round"/>
</svg>
