<svg width="16" height="16" viewBox="0 0 16 16" fill="none" xmlns="http://www.w3.org/2000/svg">
<path d="M7.99967 14.6663C11.6816 14.6663 14.6663 11.6816 14.6663 7.99967C14.6663 4.31778 11.6816 1.33301 7.99967 1.33301C4.31778 1.33301 1.33301 4.31778 1.33301 7.99967C1.33301 8.91892 1.51906 9.79471 1.85556 10.5914C2.04153 11.0318 2.13451 11.2519 2.14603 11.4183C2.15754 11.5847 2.10857 11.7678 2.01062 12.1338L1.33301 14.6663L3.86552 13.9887C4.2316 13.8908 4.41463 13.8418 4.58102 13.8533C4.74741 13.8648 4.96758 13.9578 5.40791 14.1438C6.20464 14.4803 7.08043 14.6663 7.99967 14.6663Z" stroke="#1E1E1F" stroke-linejoin="round"/>
<path d="M5.72479 8.2514L6.30541 7.53027C6.55012 7.22633 6.85264 6.94336 6.87633 6.53868C6.88231 6.43646 6.81039 5.97755 6.66655 5.05975C6.61002 4.69905 6.27326 4.6665 5.98157 4.6665C5.60145 4.6665 5.41138 4.6665 5.22265 4.75271C4.98411 4.86167 4.73921 5.16804 4.68546 5.42472C4.64294 5.62781 4.67454 5.76775 4.73774 6.04763C5.00617 7.23638 5.63589 8.4104 6.61234 9.38685C7.58878 10.3633 8.7628 10.993 9.95156 11.2614C10.2314 11.3246 10.3714 11.3562 10.5745 11.3137C10.8311 11.26 11.1375 11.0151 11.2465 10.7765C11.3327 10.5878 11.3327 10.3977 11.3327 10.0176C11.3327 9.72593 11.3001 9.38917 10.9394 9.33264C10.0216 9.1888 9.56272 9.11688 9.46051 9.12286C9.05582 9.14654 8.77285 9.44906 8.46892 9.69378L7.74779 10.2744" stroke="#1E1E1F"/>
</svg>
